#!OML:ASF E:\acrobat2\Project_11_07_03\Capture day 1\Session 1\Acrobat.ASF
:FULLY-SPECIFIED
:DEGREES
305
root 10.2371 19.7819 13.8635 -13.0709 9.59221 -328.646
lowerback 23.4758 9.24354 9.70279
upperback 12.796 14.472 -6.0223
thorax 5.21679 8.81191 -13.8092
lowerneck -1.34555 -1.87235 -1.15757
upperneck 19.2096 0.860228 -16.4595
head 6.06864 -0.583923 -5.0339
rclavicle 8.09054e-014 1.74931e-014
rhumerus 82.6562 0.44757 -43.5505
rradius 71.2135
rwrist -16.6915
rhand -30.469 -49.8981
rfingers 7.12502
rthumb -3.77039 -79.8444
lclavicle 8.09054e-014 1.74931e-014
lhumerus -53.3152 2.3822 18.8423
lradius 10.8613
lwrist 9.66917
lhand -49.7774 -30.0676
lfingers 7.12502
lthumb -22.3755 -1.34344
rfemur -3.12806 -11.3215 -8.71095
rtibia 30.5629
rfoot -23.7617 -38.3463
rtoes 42.3874
lfemur -92.6071 28.9143 -1.29196
ltibia 39.8131
lfoot -17.31 1.45408
ltoes 34.2138
306
root 10.3847 19.5781 14.0238 -13.1715 6.65277 -329.085
lowerback 22.6803 9.10852 10.1991
upperback 12.0847 14.254 -5.71643
thorax 5.4543 8.70405 -14.1569
lowerneck -1.91314 -1.76546 -1.01004
upperneck 19.9309 1.06452 -16.2403
head 6.41699 -0.536572 -5.00972
rclavicle -1.31993e-013 3.49861e-014
rhumerus 82.06 -1.39617 -44.52
rradius 71.839
rwrist -13.7719
rhand -31.3483 -49.5104
rfingers 7.12502
rthumb -4.61943 -79.44
lclavicle -1.31993e-013 3.49861e-014
lhumerus -57.7433 2.35119 23.4594
lradius 9.67635
lwrist 12.2139
lhand -49.4941 -29.5871
lfingers 7.12502
lthumb -22.1035 -0.830511
rfemur -2.97109 -12.7004 -8.98803
rtibia 29.7112
rfoot -24.4268 -38.3931
rtoes 42.4632
lfemur -89.8713 27.4473 -0.770746
ltibia 39.0513
lfoot -16.3611 1.73961
ltoes 30.2615
307
root 10.5299 19.3595 14.1979 -13.2639 3.67966 -329.835
lowerback 21.7276 8.95923 11.0165
upperback 11.5132 14.0868 -5.63652
thorax 5.39372 8.58286 -14.3637
lowerneck -1.90957 -1.6684 -0.593244
upperneck 20.2622 1.18696 -16.3065
head 6.52743 -0.481606 -5.11132
rclavicle -2.80286e-014 -1.59028e-014
rhumerus 81.0987 -2.93102 -45.9119
rradius 72.2269
rwrist -11.7874
rhand -32.2619 -49.2102
rfingers 7.12502
rthumb -5.50161 -79.1188
lclavicle -2.80286e-014 -1.59028e-014
lhumerus -61.8774 2.79157 27.8935
lradius 8.75564
lwrist 14.6035
lhand -48.8759 -28.9623
lfingers 7.12502
lthumb -21.5099 -0.136681
rfemur -2.89306 -13.8096 -8.7802
rtibia 29.0513
rfoot -25.8015 -37.7654
rtoes 42.9663
lfemur -86.9829 26.0206 0.455792
ltibia 38.2034
lfoot -15.1285 0.367076
ltoes 33.0168
308
root 10.6659 19.1236 14.3976 -13.5013 0.71898 -330.577
lowerback 20.8436 8.72365 11.7553
upperback 10.9268 13.7817 -5.44097
thorax 5.17737 8.35901 -14.4137
lowerneck -1.6654 -1.44457 -0.575981
upperneck 20.652 1.50822 -16.284
head 6.63725 -0.343618 -5.10252
rclavicle 1.35273e-013 -4.77083e-014
rhumerus 80.0612 -4.17969 -47.0479
rradius 72.4616
rwrist -11.1422
rhand -33.0737 -49.2058
rfingers 7.12502
rthumb -6.2854 -79.0925
lclavicle 1.35273e-013 -4.77083e-014
lhumerus -66.2888 3.72049 32.0977
lradius 8.33434
lwrist 15.9807
lhand -48.4588 -28.8961
lfingers 7.12502
lthumb -21.1092 -0.0251523
rfemur -2.57468 -14.5227 -8.51599
rtibia 28.4781
rfoot -27.0284 -34.0576
rtoes 45.5084
lfemur -83.8227 24.5708 1.96688
ltibia 37.3018
lfoot -13.3821 0.553905
ltoes 30.1204
309
root 10.7945 18.8813 14.6097 -13.8473 -1.88392 -330.793
lowerback 20.1953 8.49347 12.0113
upperback 10.4608 13.4231 -5.35093
thorax 4.8688 8.09354 -14.3646
lowerneck -1.51511 -1.28201 -0.689491
upperneck 20.9391 1.6935 -16.024
head 6.71948 -0.265716 -4.99528
rclavicle 6.81831e-014 -9.54166e-014
rhumerus 78.7609 -5.55325 -48.1151
rradius 72.3673
rwrist -11.5173
rhand -33.3845 -49.1325
rfingers 7.12502
rthumb -6.58536 -79.0101
lclavicle 6.81831e-014 -9.54166e-014
lhumerus -69.8224 5.20998 36.2229
lradius 7.94882
lwrist 16.0492
lhand -48.5249 -30.4238
lfingers 7.12502
lthumb -21.1727 -1.56002
rfemur -2.10129 -15.4143 -9.04247
rtibia 28.3825
rfoot -19.6891 -26.2016
rtoes 22.5113
lfemur -80.5533 22.6951 2.86552
ltibia 36.2271
lfoot -11.6673 -1.20834
ltoes 31.7934
310
root 10.9142 18.6373 14.8199 -14.1858 -4.27968 -330.758
lowerback 19.6858 8.18994 11.985
upperback 10.0522 12.9337 -5.34009
thorax 4.46439 7.74999 -14.2752
lowerneck -1.33474 -1.04571 -0.672275
upperneck 20.7327 1.92033 -15.9316
head 6.63902 -0.146639 -4.94703
rclavicle -5.20816e-014 5.40694e-014
rhumerus 77.461 -6.81333 -49.1677
rradius 71.8865
rwrist -12.5312
rhand -32.976 -48.8563
rfingers 7.12502
rthumb -6.19102 -78.7458
lclavicle -5.20816e-014 5.40694e-014
lhumerus -72.4733 7.18717 40.1273
lradius 7.44155
lwrist 14.9069
lhand -48.1566 -32.1037
lfingers 7.12502
lthumb -20.8188 -3.20061
rfemur -2.27227 -18.2723 -9.84046
rtibia 30.9834
rfoot -19.4227 -20.3586
rtoes 26.6051
lfemur -77.3288 20.5321 3.41797
ltibia 35
lfoot -9.69188 -1.9927
ltoes 33.1811
311
root 11.0258 18.3868 15.0403 -14.7077 -6.89577 -330.649
lowerback 19.4005 7.96424 11.8791
upperback 9.66667 12.5584 -5.3447
thorax 4.00358 7.4646 -14.2034
lowerneck -0.72774 -0.782917 -0.430126
upperneck 20.0602 2.10952 -16.0322
head 6.32738 -0.000155023 -4.98686
rclavicle 5.04913e-014 3.18055e-014
rhumerus 76.129 -7.9674 -50.1059
rradius 70.9714
rwrist -13.968
rhand -32.0288 -48.1976
rfingers 7.12502
rthumb -5.27655 -78.1119
lclavicle 5.04913e-014 3.18055e-014
lhumerus -74.3746 9.09884 43.7188
lradius 7.29401
lwrist 13.1019
lhand -47.0404 -32.3179
lfingers 7.12502
lthumb -19.7461 -3.3009
rfemur -3.66731 -20.142 -10.319
rtibia 36.0318
rfoot -18.9166 -16.5518
rtoes 13.2282
lfemur -73.9283 18.5774 3.86652
ltibia 33.775
lfoot -7.56658 -1.71708
ltoes 32.9485
312
root 11.1355 18.1326 15.2658 -15.3426 -9.69678 -330.214
lowerback 19.1904 7.77948 11.4192
upperback 9.57492 12.1794 -5.34689
thorax 3.75856 7.19708 -13.9105
lowerneck -0.853611 -0.380481 -0.499001
upperneck 19.282 2.54383 -16.1481
head 6.14197 0.214789 -4.96825
rclavicle 3.08116e-014 -1.59028e-014
rhumerus 75.3929 -8.9903 -50.8223
rradius 69.6324
rwrist -15.7889
rhand -30.6553 -47.4834
rfingers 7.12502
rthumb -3.95028 -77.4265
lclavicle 3.08116e-014 -1.59028e-014
lhumerus -75.2552 11.4908 47.3491
lradius 7.50028
lwrist 11.4544
lhand -45.6568 -31.7942
lfingers 7.12502
lthumb -18.4156 -2.64592
rfemur -5.20971 -20.6631 -10.8362
rtibia 39.2645
rfoot -20.4574 -13.1212
rtoes 7.45769
lfemur -70.4311 16.7583 4.05525
ltibia 32.5787
lfoot -5.5703 -2.1402
ltoes 36.1296
313
root 11.248 17.8812 15.4774 -15.6888 -12.7075 -330.137
lowerback 19.1891 7.76937 11.6913
upperback 9.31389 12.1899 -5.44437
thorax 3.55996 7.18066 -14.2038
lowerneck -0.930722 -0.152674 0.100974
upperneck 18.5468 2.69226 -16.2618
head 5.93469 0.339835 -5.08176
rclavicle -6.24184e-014 1.36764e-013
rhumerus 74.0216 -10.5238 -51.0844
rradius 68.042
rwrist -18.1326
rhand -28.9195 -47.1533
rfingers 7.12502
rthumb -2.27398 -77.121
lclavicle -6.24184e-014 1.36764e-013
lhumerus -74.5245 12.9038 51.0545
lradius 8.03071
lwrist 10.2005
lhand -44.1214 -30.9874
lfingers 7.12502
lthumb -16.938 -1.70599
rfemur -7.276 -20.325 -10.4977
rtibia 41.3961
rfoot -22.1287 -10.1148
rtoes 12.3364
lfemur -67.3113 15.0481 4.66685
ltibia 31.6074
lfoot -3.77102 -3.33348
ltoes 40.8175
314
root 11.372 17.646 15.6971 -15.9894 -15.789 -330.129
lowerback 19.072 7.58424 12.2116
upperback 9.07182 11.9956 -5.37047
thorax 3.38585 7.05916 -14.4065
lowerneck -0.492281 0.301181 0.223541
upperneck 17.627 3.16907 -16.5283
head 5.61432 0.61951 -5.14216
rclavicle -1.07344e-014 9.54166e-015
rhumerus 72.5974 -11.4038 -50.5157
rradius 66.6202
rwrist -21.1775
rhand -26.8665 -47.2401
rfingers 7.12502
rthumb -0.291187 -77.2196
lclavicle -1.07344e-014 9.54166e-015
lhumerus -73.2983 14.4902 54.867
lradius 8.49933
lwrist 9.44729
lhand -42.7457 -30.2972
lfingers 7.12502
lthumb -15.6135 -0.907356
rfemur -9.67173 -20.1755 -9.98043
rtibia 44.0554
rfoot -24.2413 -6.35995
rtoes 22.8037
lfemur -64.3945 13.2009 5.20724
ltibia 30.7295
lfoot -2.03293 -3.55958
ltoes 43.1297
